# 3ds Max Wavefront OBJ Exporter v0.97b - (c)2007 guruware
# File Created: 30.04.2019 17:31:29

mtllib car.mtl

#
# object Box01
#

#
# object Box02
#

v  -12.0000 0.0000 -22.0000
v  -12.0000 11.0000 -22.0000
v  12.0000 11.0000 -22.0000
v  12.0000 0.0000 -22.0000
v  -12.0000 -0.0000 25.0000
v  12.0000 -0.0000 25.0000
v  12.0000 11.0000 25.0000
v  -12.0000 11.0000 25.0000
v  12.0000 11.0000 13.0000
v  -12.0000 11.0000 13.0000
v  -12.0000 11.0000 -10.0000
v  -8.0000 20.0000 7.0000
v  8.0000 20.0000 7.0000
v  8.0000 20.0000 -6.0000
v  -8.0000 20.0000 -6.0000
v  12.0000 11.0000 -10.0000
# 16 vertices

vn 0.0000 0.0000 -1.0000
vn -0.0000 -0.0000 1.0000
vn 1.0000 0.0000 -0.0000
vn 0.0000 1.0000 0.0000
vn -1.0000 0.0000 -0.0000
vn 0.0000 0.5547 0.8321
vn 0.9138 0.4061 0.0000
vn 0.0000 0.4061 -0.9138
vn -0.9138 0.4061 0.0000
# 9 vertex normals

vt 0.7969 0.8125 0.0000
vt 0.7969 0.9844 0.0000
vt 0.4219 0.9844 0.0000
vt 0.4219 0.8125 0.0000
vt 0.0156 0.8125 0.0000
vt 0.3906 0.8125 0.0000
vt 0.3906 0.9844 0.0000
vt 0.0156 0.9844 0.0000
vt 0.5625 0.1875 0.0000
vt 0.7500 0.1875 0.0000
vt 0.7500 0.0156 0.0000
vt 0.3906 0.6094 0.0000
vt 0.0156 0.6094 0.0000
vt 0.0156 0.4219 0.0000
vt 0.3906 0.4219 0.0000
vt 0.2031 0.1875 0.0000
vt 0.0156 0.0156 0.0000
vt 0.4219 0.5781 0.0000
vt 0.6719 0.5781 0.0000
vt 0.6719 0.7813 0.0000
vt 0.4219 0.7813 0.0000
vt 0.0156 0.1875 0.0000
vt 0.0156 0.6406 0.0000
vt 0.3906 0.6406 0.0000
vt 0.3906 0.7813 0.0000
vt 0.0156 0.7813 0.0000
vt 0.3750 0.2656 0.0000
vt 0.0156 0.2656 0.0000
vt 0.0781 0.3906 0.0000
vt 0.2813 0.3906 0.0000
# 30 texture coords

g Box02
usemtl 01___Default
s 2
f 1/1/1 2/2/1 3/3/1 
f 3/3/1 4/4/1 1/1/1 
s 4
f 5/5/2 6/6/2 7/7/2 
f 7/7/2 8/8/2 5/5/2 
s 16
f 9/9/3 7/10/3 6/11/3 
s 32
f 9/12/4 10/13/4 8/14/4 
f 8/14/4 7/15/4 9/12/4 
s 64
f 10/9/5 5/11/5 8/10/5 
s off
f 5/11/5 10/9/5 11/16/5 
f 11/16/5 1/17/5 5/11/5 
f 12/18/4 13/19/4 14/20/4 
f 14/20/4 15/21/4 12/18/4 
f 9/9/3 6/11/3 4/17/3 
f 4/17/3 16/16/3 9/9/3 
f 11/16/5 2/22/5 1/17/5 
f 11/14/4 16/15/4 3/12/4 
f 3/12/4 2/13/4 11/14/4 
f 16/16/3 4/17/3 3/22/3 
f 10/23/6 9/24/6 13/25/6 
f 13/25/6 12/26/6 10/23/6 
f 9/27/7 16/28/7 14/29/7 
f 14/29/7 13/30/7 9/27/7 
f 16/23/8 11/24/8 15/25/8 
f 15/25/8 14/26/8 16/23/8 
f 11/28/9 10/27/9 12/30/9 
f 12/30/9 15/29/9 11/28/9 
# 26 faces

