# Blender v2.79 (sub 0) OBJ File: ''
# www.blender.org
mtllib abstract.mtl
o Cube
v 1.000000 -1.000000 -1.000000
v 1.000000 -1.000000 1.000000
v -1.000000 -1.000000 1.000000
v -1.000000 -1.000000 -1.000000
v 1.000000 1.000000 -0.999999
v 0.999999 1.000000 1.000001
v -1.000000 1.000000 1.000000
v -1.000000 1.000000 -1.000000
v -0.272207 0.149123 1.745077
v -0.272207 2.149123 1.745077
v -0.272207 0.149123 -0.254923
v -0.272207 2.149123 -0.254923
v 1.727793 0.149123 1.745077
v 1.727793 2.149123 1.745077
v 1.727793 0.149123 -0.254923
v 1.727793 2.149123 -0.254923
v 0.727793 -0.000000 -0.254923
v 0.727793 2.000000 -0.254923
v 0.922883 -0.000000 -0.235709
v 0.922883 2.000000 -0.235709
v 1.110476 -0.000000 -0.178803
v 1.110476 2.000000 -0.178803
v 1.283363 -0.000000 -0.086393
v 1.283363 2.000000 -0.086393
v 1.434899 -0.000000 0.037970
v 1.434899 2.000000 0.037970
v 1.559262 -0.000000 0.189506
v 1.559262 2.000000 0.189506
v 1.651672 -0.000000 0.362393
v 1.651672 2.000000 0.362393
v 1.708578 -0.000000 0.549986
v 1.708578 2.000000 0.549986
v 1.727793 -0.000000 0.745077
v 1.727793 2.000000 0.745077
v 1.708578 -0.000000 0.940167
v 1.708578 2.000000 0.940167
v 1.651672 -0.000000 1.127760
v 1.651672 2.000000 1.127760
v 1.559262 -0.000000 1.300647
v 1.559262 2.000000 1.300647
v 1.434899 -0.000000 1.452183
v 1.434899 2.000000 1.452183
v 1.283363 -0.000000 1.576546
v 1.283363 2.000000 1.576546
v 1.110476 -0.000000 1.668956
v 1.110476 2.000000 1.668956
v 0.922883 -0.000000 1.725862
v 0.922883 2.000000 1.725862
v 0.727792 -0.000000 1.745077
v 0.727792 2.000000 1.745077
v 0.532702 -0.000000 1.725862
v 0.532702 2.000000 1.725862
v 0.345109 -0.000000 1.668956
v 0.345109 2.000000 1.668956
v 0.172222 -0.000000 1.576546
v 0.172222 2.000000 1.576546
v 0.020685 -0.000000 1.452183
v 0.020685 2.000000 1.452183
v -0.103677 -0.000000 1.300646
v -0.103677 2.000000 1.300646
v -0.196087 -0.000000 1.127759
v -0.196087 2.000000 1.127759
v -0.252993 -0.000000 0.940166
v -0.252993 2.000000 0.940166
v -0.272207 -0.000000 0.745076
v -0.272207 2.000000 0.745076
v -0.252992 -0.000000 0.549985
v -0.252992 2.000000 0.549985
v -0.196086 -0.000000 0.362392
v -0.196086 2.000000 0.362392
v -0.103676 -0.000000 0.189505
v -0.103676 2.000000 0.189505
v 0.020687 -0.000000 0.037969
v 0.020687 2.000000 0.037969
v 0.172224 -0.000000 -0.086394
v 0.172224 2.000000 -0.086394
v 0.345111 -0.000000 -0.178803
v 0.345111 2.000000 -0.178803
v 0.532704 -0.000000 -0.235709
v 0.532704 2.000000 -0.235709
v -0.102729 -1.896735 -3.136528
v -0.102729 0.103265 -3.136528
v 0.092361 -1.896735 -3.117313
v 0.092361 0.103265 -3.117313
v 0.279954 -1.896735 -3.060408
v 0.279954 0.103265 -3.060408
v 0.452841 -1.896735 -2.967998
v 0.452841 0.103265 -2.967998
v 0.604378 -1.896735 -2.843635
v 0.604378 0.103265 -2.843635
v 0.728741 -1.896735 -2.692098
v 0.728741 0.103265 -2.692098
v 0.821150 -1.896735 -2.519212
v 0.821150 0.103265 -2.519212
v 0.878056 -1.896735 -2.331619
v 0.878056 0.103265 -2.331619
v 0.897271 -1.896735 -2.136528
v 0.897271 0.103265 -2.136528
v 0.878056 -1.896735 -1.941438
v 0.878056 0.103265 -1.941438
v 0.821150 -1.896735 -1.753845
v 0.821150 0.103265 -1.753845
v 0.728741 -1.896735 -1.580958
v 0.728741 0.103265 -1.580958
v 0.604378 -1.896735 -1.429421
v 0.604378 0.103265 -1.429421
v 0.452841 -1.896735 -1.305059
v 0.452841 0.103265 -1.305059
v 0.279954 -1.896735 -1.212649
v 0.279954 0.103265 -1.212649
v 0.092361 -1.896735 -1.155743
v 0.092361 0.103265 -1.155743
v -0.102729 -1.896735 -1.136528
v -0.102729 0.103265 -1.136528
v -0.297820 -1.896735 -1.155743
v -0.297820 0.103265 -1.155743
v -0.485413 -1.896735 -1.212649
v -0.485413 0.103265 -1.212649
v -0.658300 -1.896735 -1.305059
v -0.658300 0.103265 -1.305059
v -0.809836 -1.896735 -1.429422
v -0.809836 0.103265 -1.429422
v -0.934199 -1.896735 -1.580959
v -0.934199 0.103265 -1.580959
v -1.026609 -1.896735 -1.753846
v -1.026609 0.103265 -1.753846
v -1.083514 -1.896735 -1.941439
v -1.083514 0.103265 -1.941439
v -1.102729 -1.896735 -2.136529
v -1.102729 0.103265 -2.136529
v -1.083514 -1.896735 -2.331620
v -1.083514 0.103265 -2.331620
v -1.026608 -1.896735 -2.519213
v -1.026608 0.103265 -2.519213
v -0.934198 -1.896735 -2.692100
v -0.934198 0.103265 -2.692100
v -0.809835 -1.896735 -2.843636
v -0.809835 0.103265 -2.843636
v -0.658298 -1.896735 -2.967999
v -0.658298 0.103265 -2.967999
v -0.485411 -1.896735 -3.060408
v -0.485411 0.103265 -3.060408
v -0.297818 -1.896735 -3.117314
v -0.297818 0.103265 -3.117314
vn 0.0000 -1.0000 0.0000
vn 0.0000 1.0000 0.0000
vn 1.0000 0.0000 0.0000
vn -0.0000 -0.0000 1.0000
vn -1.0000 -0.0000 -0.0000
vn 0.0000 0.0000 -1.0000
vn 0.0980 0.0000 -0.9952
vn -0.7730 0.0000 0.6344
vn 0.9569 0.0000 0.2903
vn 0.2903 0.0000 -0.9569
vn -0.6344 0.0000 0.7730
vn 0.4714 0.0000 -0.8819
vn 0.6344 0.0000 -0.7730
vn 0.9952 0.0000 0.0980
vn 0.7730 0.0000 -0.6344
vn -0.4714 0.0000 0.8819
vn 0.8819 0.0000 -0.4714
vn 0.9569 0.0000 -0.2903
vn 0.9952 0.0000 -0.0980
vn -0.2903 0.0000 0.9569
vn 0.8819 0.0000 0.4714
vn -0.0980 0.0000 0.9952
vn 0.7730 0.0000 0.6344
vn 0.6344 0.0000 0.7730
vn 0.4714 0.0000 0.8819
vn 0.0980 0.0000 0.9952
vn 0.2903 0.0000 0.9569
vn -0.8819 0.0000 0.4714
vn -0.9569 0.0000 0.2903
vn -0.9952 0.0000 0.0980
vn -0.9952 0.0000 -0.0980
vn -0.9569 0.0000 -0.2903
vn -0.8819 0.0000 -0.4714
vn -0.7730 0.0000 -0.6344
vn -0.6344 0.0000 -0.7730
vn -0.4714 0.0000 -0.8819
vn -0.2903 0.0000 -0.9569
vn -0.0980 0.0000 -0.9952
usemtl Material
s off
f 1//1 2//1 3//1 4//1
f 5//2 8//2 7//2 6//2
f 1//3 5//3 6//3 2//3
f 2//4 6//4 7//4 3//4
f 3//5 7//5 8//5 4//5
f 5//6 1//6 4//6 8//6
f 9//5 10//5 12//5 11//5
f 11//6 12//6 16//6 15//6
f 15//3 16//3 14//3 13//3
f 13//4 14//4 10//4 9//4
f 11//1 15//1 13//1 9//1
f 16//2 12//2 10//2 14//2
f 17//7 18//7 20//7 19//7
f 121//8 122//8 124//8 123//8
f 99//9 100//9 102//9 101//9
f 19//10 20//10 22//10 21//10
f 119//11 120//11 122//11 121//11
f 21//12 22//12 24//12 23//12
f 23//13 24//13 26//13 25//13
f 97//14 98//14 100//14 99//14
f 25//15 26//15 28//15 27//15
f 117//16 118//16 120//16 119//16
f 27//17 28//17 30//17 29//17
f 29//18 30//18 32//18 31//18
f 95//19 96//19 98//19 97//19
f 31//19 32//19 34//19 33//19
f 115//20 116//20 118//20 117//20
f 33//14 34//14 36//14 35//14
f 35//9 36//9 38//9 37//9
f 93//18 94//18 96//18 95//18
f 37//21 38//21 40//21 39//21
f 113//22 114//22 116//22 115//22
f 39//23 40//23 42//23 41//23
f 41//24 42//24 44//24 43//24
f 91//17 92//17 94//17 93//17
f 43//25 44//25 46//25 45//25
f 111//26 112//26 114//26 113//26
f 45//27 46//27 48//27 47//27
f 47//26 48//26 50//26 49//26
f 89//15 90//15 92//15 91//15
f 49//22 50//22 52//22 51//22
f 109//27 110//27 112//27 111//27
f 51//20 52//20 54//20 53//20
f 53//16 54//16 56//16 55//16
f 87//13 88//13 90//13 89//13
f 55//11 56//11 58//11 57//11
f 107//25 108//25 110//25 109//25
f 57//8 58//8 60//8 59//8
f 59//28 60//28 62//28 61//28
f 85//12 86//12 88//12 87//12
f 61//29 62//29 64//29 63//29
f 105//24 106//24 108//24 107//24
f 63//30 64//30 66//30 65//30
f 65//31 66//31 68//31 67//31
f 83//10 84//10 86//10 85//10
f 67//32 68//32 70//32 69//32
f 103//23 104//23 106//23 105//23
f 69//33 70//33 72//33 71//33
f 71//34 72//34 74//34 73//34
f 81//7 82//7 84//7 83//7
f 73//35 74//35 76//35 75//35
f 101//21 102//21 104//21 103//21
f 75//36 76//36 78//36 77//36
f 20//2 18//2 80//2 78//2 76//2 74//2 72//2 70//2 68//2 66//2 64//2 62//2 60//2 58//2 56//2 54//2 52//2 50//2 48//2 46//2 44//2 42//2 40//2 38//2 36//2 34//2 32//2 30//2 28//2 26//2 24//2 22//2
f 77//37 78//37 80//37 79//37
f 79//38 80//38 18//38 17//38
f 17//1 19//1 21//1 23//1 25//1 27//1 29//1 31//1 33//1 35//1 37//1 39//1 41//1 43//1 45//1 47//1 49//1 51//1 53//1 55//1 57//1 59//1 61//1 63//1 65//1 67//1 69//1 71//1 73//1 75//1 77//1 79//1
f 123//28 124//28 126//28 125//28
f 125//29 126//29 128//29 127//29
f 127//30 128//30 130//30 129//30
f 129//31 130//31 132//31 131//31
f 131//32 132//32 134//32 133//32
f 133//33 134//33 136//33 135//33
f 135//34 136//34 138//34 137//34
f 137//35 138//35 140//35 139//35
f 139//36 140//36 142//36 141//36
f 101//1 103//1 105//1 107//1 109//1 111//1 113//1 115//1 117//1 119//1 121//1 123//1 125//1 127//1 129//1 131//1 133//1 135//1 137//1 139//1 141//1 143//1 81//1 83//1 85//1 87//1 89//1 91//1 93//1 95//1 97//1 99//1
f 141//37 142//37 144//37 143//37
f 143//38 144//38 82//38 81//38
f 124//2 122//2 120//2 118//2 116//2 114//2 112//2 110//2 108//2 106//2 104//2 102//2 100//2 98//2 96//2 94//2 92//2 90//2 88//2 86//2 84//2 82//2 144//2 142//2 140//2 138//2 136//2 134//2 132//2 130//2 128//2 126//2
